# xmcd CD database file
#
# Track frame offsets:
#	150
#	16116
#	28854
#	44795
#	55053
#	66194
#	88210
#	100947
#	117696
#	126811
#	138902
#
# Disc length: 2050 seconds
#
# Revision: 0
# Processed by: cddbd v1.4PL0 Copyright (c) Steve Scherf et al.
# Submitted via: CDex 1.50Beta7
#
DISCID=9e08000b
DTITLE=The Larkins - Love I Think
DYEAR=1998
DGENRE=Country
TTITLE0=Lovind You
TTITLE1=Same Old Song
TTITLE2=Love I Think
TTITLE3=Leaving Coming
TTITLE4=Son Shine
TTITLE5=Are Your Eyes Still Blue
TTITLE6=Holding on to the Heartache
TTITLE7=Dancin' in God's Country
TTITLE8=Look at You
TTITLE9=Second that Emotion
TTITLE10=Jesus, Daddy and You
EXTD=YEAR: 1998
EXTT0=
EXTT1=
EXTT2=
EXTT3=
EXTT4=
EXTT5=
EXTT6=
EXTT7=
EXTT8=
EXTT9=
EXTT10=
PLAYORDER=
